<?xml version="1.0" encoding="UTF-8"?>
<svg xmlns="http://www.w3.org/2000/svg" viewBox="0 0 24 24" width="24" height="24">
  <g fill="none" stroke="#000" stroke-width="1.8" stroke-linecap="round" stroke-linejoin="round">
    <circle cx="12" cy="12" r="3" />
    <path d="M19.4 15a1.65 1.65 0 00.33 1.82l.06.06a2 2 0 01-2.83 2.83l-.06-.06a1.65 1.65 0 00-1.82-.33 1.65 1.65 0 00-1 1.51V21a2 2 0 01-4 0v-.09a1.65 1.65 0 00-1-1.51 1.65 1.65 0 00-1.82.33l-.06.06A2 2 0 014.28 18.9l.06-.06a1.65 1.65 0 00.33-1.82 1.65 1.65 0 00-1.51-1H3a2 2 0 010-4h.09a1.65 1.65 0 001.51-1 1.65 1.65 0 00-.33-1.82L4.2 6.6A2 2 0 016.99 3.77l.06.06a1.65 1.65 0 001.82.33h.09A1.65 1.65 0 0010.41 4V3a2 2 0 014 0v.09c.2.07.39.17.56.29.35.25.74.4 1.16.44.37.04.74.08 1.11.11h.01c.57.04 1.02.5 1.06 1.07.03.37.07.73.11 1.11.03.41.19.8.44 1.16.12.17.22.36.29.56H21a2 2 0 010 4h-.09c-.43 0-.85.04-1.25.11-.39.07-.76.23-1.09.46z" />
  </g>
</svg>
